<svg xmlns="http://www.w3.org/2000/svg" width="107" height="20"><path fill="#f3cd03" d="M18.626 7.417a.918.918 0 00-.796-.62L12.6 6.38l-2.262-5.009a.916.916 0 00-1.671 0l-2.263 5.01-5.23.415a.917.917 0 00-.567 1.57l3.864 3.768-1.366 5.918a.917.917 0 001.403.97l4.994-3.33 4.995 3.33a.918.918 0 001.391-1.015l-1.677-5.87 4.16-3.745a.919.919 0 00.255-.976zm22.02 0a.918.918 0 00-.796-.62l-5.23-.416-2.262-5.009a.916.916 0 00-1.671 0l-2.263 5.01-5.23.415a.917.917 0 00-.567 1.57l3.864 3.768-1.366 5.918a.917.917 0 001.403.97l4.994-3.33 4.995 3.33a.918.918 0 001.391-1.015l-1.677-5.87 4.16-3.745a.919.919 0 00.255-.976zm22.01 0a.918.918 0 00-.796-.62l-5.23-.416-2.262-5.009a.916.916 0 00-1.671 0l-2.263 5.01-5.23.415a.917.917 0 00-.567 1.57l3.864 3.768-1.366 5.918a.917.917 0 001.403.97l4.994-3.33 4.995 3.33a.918.918 0 001.391-1.015l-1.677-5.87 4.16-3.745a.919.919 0 00.255-.976zm22.02 0a.918.918 0 00-.796-.62l-5.23-.416-2.262-5.009a.916.916 0 00-1.671 0l-2.263 5.01-5.23.415a.917.917 0 00-.567 1.57l3.864 3.768-1.366 5.918a.917.917 0 001.403.97l4.994-3.33 4.995 3.33a.918.918 0 001.391-1.015l-1.677-5.87 4.16-3.745a.919.919 0 00.255-.976zm7.856 4.717l-3.865-3.767a.917.917 0 01.568-1.57l5.229-.416 2.263-5.01a.915.915 0 011.671 0l2.263 5.01 5.229.416a.917.917 0 01.541 1.596l-4.16 3.744 1.677 5.87a.918.918 0 01-1.391 1.015l-4.995-3.33-4.994 3.33a.915.915 0 01-1.402-.97l1.366-5.918zm-1.134-3.669l2.786 2.717a.918.918 0 01.253.862l-.963 4.17 3.581-2.387a.913.913 0 011.017 0l3.427 2.285-1.15-4.022a.92.92 0 01.27-.934l3-2.7-3.643-.29a.916.916 0 01-.763-.537l-1.65-3.652-1.65 3.652a.915.915 0 01-.764.537z"/></svg>